<svg width="30" height="30" viewBox="0 0 30 30" fill="none" xmlns="http://www.w3.org/2000/svg">
<g clip-path="url(#clip0_31_609)">
<path d="M15 30C23.2843 30 30 23.2843 30 15C30 6.71573 23.2843 0 15 0C6.71573 0 0 6.71573 0 15C0 23.2843 6.71573 30 15 30Z" fill="#F5F8FA"/>
<path d="M14.9996 9.16659C14.7786 9.16659 14.5666 9.0788 14.4103 8.92252C14.2541 8.76624 14.1663 8.55427 14.1663 8.33326V2.49993C14.1663 2.27891 14.2541 2.06695 14.4103 1.91067C14.5666 1.75439 14.7786 1.66659 14.9996 1.66659C15.2206 1.66659 15.4326 1.75439 15.5888 1.91067C15.7451 2.06695 15.8329 2.27891 15.8329 2.49993V8.33326C15.8329 8.55427 15.7451 8.76624 15.5888 8.92252C15.4326 9.0788 15.2206 9.16659 14.9996 9.16659ZM9.51375 12.9166C9.42835 12.9165 9.34347 12.9033 9.26209 12.8774L2.56125 10.7591C2.35052 10.6925 2.17488 10.5448 2.07299 10.3487C1.97109 10.1526 1.95129 9.924 2.01792 9.71326C2.08456 9.50252 2.23218 9.32689 2.42831 9.22499C2.62444 9.1231 2.85302 9.10329 3.06375 9.16993L9.76542 11.2883C9.95553 11.348 10.1179 11.4739 10.2232 11.6431C10.3284 11.8123 10.3696 12.0136 10.3391 12.2105C10.3087 12.4075 10.2087 12.587 10.0573 12.7165C9.90585 12.8461 9.71302 12.917 9.51375 12.9166ZM20.8679 12.6741C20.6678 12.673 20.4747 12.6 20.3239 12.4683C20.1731 12.3367 20.0747 12.1552 20.0466 11.957C20.0185 11.7588 20.0626 11.5572 20.1709 11.3888C20.2791 11.2204 20.4443 11.0966 20.6363 11.0399L26.2613 9.40826C26.4726 9.34995 26.6983 9.37725 26.8897 9.48424C27.081 9.59124 27.2225 9.76931 27.2834 9.97988C27.3444 10.1905 27.3199 10.4166 27.2153 10.6092C27.1107 10.8019 26.9344 10.9455 26.7246 11.0091L21.0996 12.6408C21.0243 12.6627 20.9463 12.6739 20.8679 12.6741ZM22.5354 25.1391C22.4054 25.1392 22.2772 25.1089 22.161 25.0506C22.0448 24.9922 21.9439 24.9076 21.8663 24.8033L17.3171 18.6924C17.2492 18.6049 17.1994 18.5046 17.1707 18.3976C17.142 18.2906 17.135 18.1789 17.15 18.0691C17.1649 17.9593 17.2017 17.8536 17.258 17.7581C17.3143 17.6627 17.3891 17.5795 17.478 17.5133C17.5669 17.4471 17.6681 17.3994 17.7757 17.3728C17.8833 17.3462 17.9951 17.3413 18.1046 17.3585C18.214 17.3756 18.319 17.4144 18.4133 17.4726C18.5076 17.5308 18.5893 17.6073 18.6538 17.6974L23.2029 23.8083C23.2951 23.9321 23.3511 24.0792 23.3645 24.233C23.378 24.3868 23.3485 24.5414 23.2793 24.6794C23.2101 24.8174 23.1038 24.9335 22.9725 25.0146C22.8411 25.0958 22.6898 25.1389 22.5354 25.1391ZM7.29042 25.0699C7.13826 25.0698 6.98904 25.028 6.85895 24.9491C6.72886 24.8701 6.62287 24.7571 6.55246 24.6222C6.48205 24.4873 6.44992 24.3357 6.45955 24.1839C6.46918 24.032 6.5202 23.8857 6.60709 23.7608L10.8779 17.6149C10.9392 17.5224 11.0184 17.4431 11.1108 17.3816C11.2032 17.3201 11.3069 17.2776 11.4159 17.2567C11.5249 17.2359 11.637 17.237 11.7455 17.26C11.8541 17.2831 11.957 17.3275 12.0481 17.3909C12.1393 17.4542 12.2168 17.5351 12.2763 17.6288C12.3357 17.7226 12.3759 17.8272 12.3943 17.9366C12.4128 18.0461 12.4092 18.1581 12.3838 18.2661C12.3583 18.3742 12.3116 18.476 12.2463 18.5658L7.97542 24.7116C7.89868 24.8222 7.79628 24.9126 7.67699 24.975C7.55769 25.0374 7.42505 25.07 7.29042 25.0699ZM2.91625 22.5516C2.54959 22.5516 2.21292 22.3074 2.11209 21.9366L0.288754 15.2183C0.260137 15.1126 0.252611 15.0023 0.266606 14.8938C0.280602 14.7852 0.315844 14.6805 0.370321 14.5855C0.424798 14.4906 0.497443 14.4073 0.584108 14.3404C0.670773 14.2735 0.769761 14.2244 0.875421 14.1958C0.98108 14.1671 1.09134 14.1596 1.19991 14.1736C1.30848 14.1876 1.41323 14.2228 1.50817 14.2773C1.60312 14.3318 1.68641 14.4044 1.75328 14.4911C1.82016 14.5778 1.8693 14.6768 1.89792 14.7824L3.72125 21.5008C3.75502 21.6244 3.75977 21.7541 3.73513 21.8799C3.71049 22.0056 3.65712 22.124 3.5792 22.2257C3.50127 22.3274 3.40089 22.4098 3.2859 22.4663C3.1709 22.5228 3.04439 22.552 2.91625 22.5516ZM18.3329 28.3333H10.8329C10.6119 28.3333 10.3999 28.2455 10.2437 28.0892C10.0874 27.9329 9.99959 27.7209 9.99959 27.4999C9.99959 27.2789 10.0874 27.0669 10.2437 26.9107C10.3999 26.7544 10.6119 26.6666 10.8329 26.6666H18.3329C18.5539 26.6666 18.7659 26.7544 18.9222 26.9107C19.0785 27.0669 19.1663 27.2789 19.1663 27.4999C19.1663 27.7209 19.0785 27.9329 18.9222 28.0892C18.7659 28.2455 18.5539 28.3333 18.3329 28.3333ZM26.7713 22.6041C26.6449 22.6041 26.5201 22.5753 26.4065 22.52C26.2929 22.4647 26.1933 22.3843 26.1154 22.2848C26.0374 22.1853 25.9831 22.0694 25.9565 21.9459C25.93 21.8223 25.9319 21.6943 25.9621 21.5716L27.7329 14.3841C27.7566 14.2753 27.8018 14.1723 27.866 14.0812C27.9302 13.9902 28.0119 13.9129 28.1064 13.854C28.201 13.7951 28.3063 13.7557 28.4163 13.7382C28.5263 13.7207 28.6387 13.7255 28.7469 13.7522C28.855 13.7789 28.9567 13.827 29.0459 13.8936C29.1352 13.9603 29.2101 14.0441 29.2664 14.1403C29.3227 14.2364 29.3591 14.3428 29.3735 14.4532C29.3879 14.5637 29.3801 14.6759 29.3504 14.7833L27.5796 21.9708C27.4854 22.3499 27.1454 22.6041 26.7713 22.6041ZM25.2596 6.40659C25.1133 6.40659 24.9696 6.36807 24.8429 6.29493L18.5413 2.64909C18.4465 2.59424 18.3635 2.52125 18.297 2.4343C18.2305 2.34735 18.1817 2.24815 18.1536 2.14236C18.1254 2.03657 18.1183 1.92627 18.1328 1.81775C18.1473 1.70923 18.183 1.60463 18.2379 1.50993C18.3486 1.31867 18.5306 1.17919 18.7441 1.12216C18.9576 1.06512 19.185 1.09519 19.3763 1.20576L25.6779 4.85159C25.8369 4.94339 25.9611 5.08512 26.0313 5.25476C26.1014 5.42441 26.1136 5.61247 26.0659 5.78975C26.0182 5.96703 25.9134 6.1236 25.7675 6.23514C25.6217 6.34668 25.4432 6.40695 25.2596 6.40659ZM4.58375 6.40659C4.40716 6.4069 4.23504 6.3511 4.09222 6.24725C3.94939 6.14339 3.84325 5.99685 3.78911 5.82876C3.73496 5.66068 3.73562 5.47974 3.79097 5.31205C3.84632 5.14435 3.95352 4.99858 4.09709 4.89576L9.25375 1.19743C9.43365 1.07807 9.65281 1.03311 9.86517 1.07199C10.0775 1.11088 10.2665 1.23058 10.3925 1.40594C10.5184 1.58129 10.5714 1.79864 10.5405 2.01229C10.5095 2.22595 10.3968 2.41926 10.2263 2.55159L5.06875 6.24993C4.92742 6.35152 4.75781 6.40631 4.58375 6.40659Z" fill="#CCD6DD"/>
<path d="M21.2442 11.2633L15.2375 7.0275C15.0958 6.92755 14.9264 6.87432 14.753 6.87521C14.5795 6.87611 14.4107 6.93109 14.27 7.0325L8.2975 11.3383C8.15788 11.439 8.05289 11.5805 7.99693 11.7433C7.94097 11.9061 7.9368 12.0822 7.985 12.2475L10.0683 19.4C10.1188 19.5731 10.2241 19.7251 10.3683 19.8333C10.5126 19.9415 10.688 20 10.8683 20H18.3333C18.5079 20 18.678 19.9453 18.8197 19.8435C18.9615 19.7417 19.0677 19.5979 19.1233 19.4325L21.5542 12.21C21.6113 12.0399 21.612 11.8558 21.5562 11.6852C21.5003 11.5147 21.3909 11.3667 21.2442 11.2633ZM1.07667 16.285C1.22461 16.285 1.3699 16.2457 1.49761 16.171C1.62532 16.0963 1.73084 15.989 1.80333 15.86L4.61583 10.86C4.65827 10.7843 4.68864 10.7025 4.70583 10.6175L5.81667 5.16667C5.84138 5.04558 5.83886 4.92051 5.80927 4.80051C5.77969 4.68052 5.72379 4.56861 5.64561 4.47289C5.56744 4.37717 5.46896 4.30003 5.35729 4.24707C5.24563 4.19411 5.12359 4.16664 5 4.16667H4.64333C1.7875 6.8975 0 10.7367 0 15C0 15.2217 0.0233333 15.4375 0.0333333 15.6567L0.535 16.085C0.686667 16.215 0.879167 16.285 1.07667 16.285ZM8.8475 2.49583C8.89124 2.58575 8.95593 2.66386 9.03612 2.72361C9.1163 2.78335 9.20966 2.82298 9.30833 2.83917L14.6208 3.7075C14.6879 3.71781 14.7562 3.71781 14.8233 3.7075L19.8933 2.87417C19.9762 2.8605 20.0555 2.83026 20.1264 2.78527C20.1973 2.74027 20.2585 2.68144 20.3062 2.61229C20.3538 2.54314 20.3871 2.46508 20.4039 2.38279C20.4208 2.3005 20.4209 2.21566 20.4042 2.13333L20.1608 0.930833C18.509 0.318227 16.7617 0.00307996 15 0C12.9792 0 11.055 0.405 9.29583 1.13L8.86167 1.92167C8.81357 2.00927 8.78719 2.10712 8.78472 2.20703C8.78226 2.30693 8.80379 2.40597 8.8475 2.49583ZM25.945 4.76583L24.6917 4.68667C24.5969 4.68102 24.5021 4.69674 24.4143 4.73265C24.3265 4.76857 24.2478 4.82377 24.1842 4.89417C24.1213 4.96466 24.0754 5.04866 24.0501 5.13969C24.0248 5.23071 24.0208 5.32633 24.0383 5.41917L25.0108 10.5842C25.0256 10.6504 25.0518 10.7136 25.0883 10.7708C26.3317 12.8575 27.715 15.1883 27.9058 15.5892C27.9258 15.6592 27.9575 15.655 28.0008 15.715C28.1175 15.8775 28.3108 15.8333 28.5108 15.8333H28.5167C28.6817 15.8333 28.7858 15.9117 29.99 15.2058C29.9908 15.1367 30 15.0692 30 15C30 11.0392 28.4533 7.44667 25.945 4.76583ZM12.1175 27.8133C12.126 27.6472 12.0689 27.4843 11.9583 27.36L8.20833 23.1933C8.15773 23.1385 8.0983 23.0926 8.0325 23.0575C3.12833 20.5 3.0375 20.47 2.9775 20.4492C2.91235 20.428 2.84433 20.4171 2.77583 20.4167C2.32833 20.4167 2.19667 20.4708 1.78833 22.1033C3.67172 25.5969 6.86023 28.204 10.6583 29.3558L11.9083 28.245C11.9699 28.1904 12.0201 28.1241 12.056 28.05C12.0919 27.976 12.1128 27.8955 12.1175 27.8133ZM26.9783 20.6742C26.9001 20.6413 26.816 20.6248 26.7312 20.6255C26.6464 20.6262 26.5626 20.6442 26.485 20.6783L21.4158 22.9008C21.3274 22.9392 21.2492 22.9977 21.1875 23.0717L17.6458 27.3075C17.5927 27.3709 17.5528 27.4442 17.5282 27.5231C17.5036 27.6021 17.495 27.6851 17.5027 27.7674C17.5105 27.8497 17.5345 27.9297 17.5734 28.0026C17.6122 28.0756 17.6652 28.1401 17.7292 28.1925C18.2983 28.6583 18.78 29.0508 19.2017 29.3925C22.8624 28.3185 25.9772 25.8914 27.9133 22.6042L27.32 21.03C27.2902 20.9506 27.2445 20.8781 27.1858 20.8169C27.127 20.7558 27.0564 20.7072 26.9783 20.6742Z" fill="#31373D"/>
</g>
<defs>
<clipPath id="clip0_31_609">
<rect width="30" height="30" fill="white"/>
</clipPath>
</defs>
</svg>
